<svg width="8" height="5" viewBox="0 0 8 5" fill="none" xmlns="http://www.w3.org/2000/svg">
<path d="M4.48006 4.52C4.38639 4.61379 4.25929 4.66655 4.12673 4.66667H3.8734C3.74112 4.66513 3.61455 4.61259 3.52006 4.52L0.100064 1.09333C0.0369601 1.03074 0.00146484 0.945544 0.00146484 0.856665C0.00146484 0.767785 0.0369601 0.682587 0.100064 0.619998L0.573398 0.146665C0.63484 0.0839553 0.718938 0.048617 0.806731 0.048617C0.894524 0.048617 0.978622 0.0839553 1.04006 0.146665L4.00006 3.11333L6.96007 0.146665C7.02265 0.0835604 7.10785 0.0480652 7.19673 0.0480652C7.28561 0.0480652 7.37081 0.0835604 7.4334 0.146665L7.90007 0.619998C7.96317 0.682587 7.99866 0.767785 7.99866 0.856665C7.99866 0.945544 7.96317 1.03074 7.90007 1.09333L4.48006 4.52Z" fill="#F5F5F4"/>
</svg>
