<svg width="20" height="20" viewBox="0 0 20 20" fill="none" xmlns="http://www.w3.org/2000/svg">
<path fill-rule="evenodd" clip-rule="evenodd" d="M2.37856 1.14999C2.28788 1.05332 2.16128 0.998474 2.02877 0.998474C1.89627 0.998474 1.76967 1.05332 1.67899 1.14999L1.14931 1.67999C1.05269 1.77073 0.997883 1.89741 0.997883 2.02999C0.997883 2.16258 1.05269 2.28926 1.14931 2.37999L3.74773 4.99999C2.05625 6.1321 0.765553 7.77007 0.0599735 9.67999C0.0226499 9.78267 0.00239364 9.89076 1.0041e-05 9.99999C-0.000518915 10.1063 0.019856 10.2116 0.0599735 10.31C1.68479 14.3691 5.62406 17.022 9.99392 17C11.6115 16.9905 13.2064 16.6181 14.6611 15.91L17.6093 18.85C17.7 18.9467 17.8266 19.0015 17.9591 19.0015C18.0916 19.0015 18.2182 18.9467 18.3089 18.85L18.8385 18.32C18.9352 18.2293 18.99 18.1026 18.99 17.97C18.99 17.8374 18.9352 17.7107 18.8385 17.62L2.37856 1.14999ZM9.99392 15C6.6124 14.9924 3.5333 13.0498 2.06875 9.99999C2.73385 8.52809 3.82309 7.28846 5.19684 6.43999L7.35553 8.59999C6.80796 9.74722 7.04253 11.1152 7.94096 12.0142C8.83939 12.9132 10.2066 13.1479 11.3531 12.6L13.112 14.36C12.1189 14.7571 11.063 14.9738 9.99392 15ZM7.11567 3.39999C12.3856 1.89244 17.9421 4.61195 19.9878 9.69999C20.0041 9.79933 20.0041 9.90065 19.9878 9.99999C19.9911 10.113 19.9706 10.2254 19.9279 10.33C19.4434 11.6839 18.6454 12.9039 17.5993 13.89L16.1802 12.47C16.9265 11.7778 17.519 10.9362 17.9191 9.99999C16.4545 6.95022 13.3754 5.00761 9.99392 4.99999C9.59581 5.00032 9.19828 5.03041 8.80465 5.08999L7.11567 3.39999Z" fill="white"/>
</svg>
