<svg width="31" height="30" viewBox="0 0 31 30" fill="none" xmlns="http://www.w3.org/2000/svg">
<path fill-rule="evenodd" clip-rule="evenodd" d="M23.125 20.759L29.7917 27.4337C30.0894 27.7649 30.0747 28.2718 29.7583 28.5851L28.5917 29.7532C28.4352 29.9112 28.2222 30 28 30C27.7778 30 27.5648 29.9112 27.4083 29.7532L20.7417 23.0785C20.5573 22.8937 20.3899 22.6927 20.2417 22.4778L18.9917 20.8091C16.9234 22.4626 14.3551 23.3629 11.7083 23.3622C6.25434 23.3811 1.51504 19.6143 0.296213 14.2918C-0.922609 8.96934 1.70434 3.51164 6.62183 1.14986C11.5393 -1.21193 17.4349 0.152521 20.8183 4.43542C24.2017 8.71831 24.1699 14.7766 20.7417 19.0236L22.4083 20.175C22.6686 20.3418 22.909 20.5377 23.125 20.759ZM3.37499 11.6814C3.37499 16.2894 7.10595 20.0248 11.7083 20.0248C13.9185 20.0248 16.0381 19.1458 17.6009 17.5811C19.1637 16.0164 20.0417 13.8942 20.0417 11.6814C20.0417 7.07352 16.3107 3.33807 11.7083 3.33807C7.10595 3.33807 3.37499 7.07352 3.37499 11.6814Z" fill="white"/>
</svg>
