<svg width="99.39001770019532px" height="120.8099884033203px" xmlns="http://www.w3.org/2000/svg" viewBox="200.30499114990235 14.595005798339848 99.39001770019532 120.8099884033203" style="background: rgba(0, 0, 0, 0);" preserveAspectRatio="xMidYMid"><defs><filter id="editing-extrude-glow"><feFlood flood-color="#333333" result="flood-1"></feFlood><feMorphology operator="erode" radius="1" in="SourceAlpha" result="erode"></feMorphology><feComposite operator="in" in="flood-1" in2="erode" result="comp1"></feComposite><feConvolveMatrix order="3,3" divisor="1" in="comp1" result="convolve" kernelMatrix="0 0 0 1 1 1 0 0 0"></feConvolveMatrix><feOffset dx="-3" dy="0" in="convolve" result="extrude"></feOffset><feComposite operator="in" in="flood-1" in2="extrude" result="comp-extrude"></feComposite><feFlood flood-color="#000000" result="flood-2"></feFlood><feComposite operator="in" in="flood-2" in2="SourceAlpha" result="comp2"></feComposite><feMorphology operator="dilate" radius="1" in="comp2" result="dilate"></feMorphology><feOffset dx="-4.5" dy="0" in="dilate" result="offset"></feOffset><feGaussianBlur in="offset" stdDeviation="5.8" result="blur"></feGaussianBlur><feComponentTransfer in="blur" result="shadow"><feFuncA type="linear" slope="0.8" intercept="-0.2"></feFuncA></feComponentTransfer><feMerge><feMergeNode in="shadow"></feMergeNode><feMergeNode in="comp-extrude"></feMergeNode><feMergeNode in="SourceGraphic"></feMergeNode></feMerge></filter></defs><g filter="url(#editing-extrude-glow)"><g transform="translate(220.9450007379055, 96.76000022888184)"><path d="M14.34 0L0.38 0L8.51-42.24L22.59-42.24L14.34 0ZM32.51 0.19L32.51 0.19L32.51 0.19Q30.46 1.28 27.65 1.28L27.65 1.28L27.65 1.28Q24.83 1.28 23.30-0.16L23.30-0.16L23.30-0.16Q21.76-1.60 21.76-4.38L21.76-4.38L21.76-4.38Q21.76-7.17 23.71-9.89L23.71-9.89L23.71-9.89Q25.66-12.61 28.58-14.14L28.58-14.14L28.58-14.14Q31.49-15.68 33.54-16.58L33.54-16.58L29.50-25.86L29.50-25.86Q28.42-28.22 26.37-28.22L26.37-28.22L25.86-28.16L25.66-28.16L25.66-28.16Q26.05-30.40 28.67-32.13L28.67-32.13L28.67-32.13Q31.30-33.92 34.30-33.92L34.30-33.92L34.30-33.92Q39.17-33.92 41.41-29.06L41.41-29.06L41.92-28.03L44.67-21.25L44.67-21.25Q46.40-22.02 47.14-23.46L47.14-23.46L47.14-23.46Q47.87-24.90 47.87-27.74L47.87-27.74L47.87-27.74Q47.87-30.59 46.34-32.38L46.34-32.38L46.34-32.38Q48.77-33.92 51.97-33.92L51.97-33.92L51.97-33.92Q57.73-33.92 57.73-28.35L57.73-28.35L57.73-28.35Q57.73-22.27 50.11-18.75L50.11-18.75L46.27-16.96L49.73-8.06L49.73-8.06Q50.75-5.38 52.61-4.22L52.61-4.22L52.61-4.22Q53.38-3.71 54.27-3.65L54.27-3.65L54.27-3.65Q52.35-0.51 48.19 0.90L48.19 0.90L48.19 0.90Q46.91 1.28 45.18 1.28L45.18 1.28L45.18 1.28Q43.46 1.28 41.47 0.10L41.47 0.10L41.47 0.10Q39.49-1.09 38.78-2.94L38.78-2.94L35.26-12.10L35.26-12.10Q31.68-10.50 31.68-4.67L31.68-4.67L31.68-4.67Q31.68-1.98 32.51 0.19Z" fill="#eb6c6c"></path></g></g><style>text {
  font-size: 64px;
  font-family: Arial Black;
  dominant-baseline: central;
  text-anchor: middle;
}</style></svg>